# xmcd
#
# Track frame offsets: 
#        150
#        21857
#        41107
#        70355
#        112007
#        132917
#        161562
#        177725
#        200027
#        223050
#
# Disc length: 3309 seconds
#
# Revision: 0
# Processed by: cddbd v1.5.2PL0 Copyright (c) Steve Scherf et al.
# Submitted via: ExactAudioCopy v0.99pb5
#
DISCID=a00ceb0a
DTITLE=Eric Clapton  - Behind The Sun Japan Tour 1985 - Disc 05
DYEAR=1900
DGENRE=
TTITLE0=Tulsa Time
TTITLE1=Motherless Children
TTITLE2=I Shot The Sheriff
TTITLE3=Same Old Blues
TTITLE4=Tangled In Love
TTITLE5=White Room
TTITLE6=Hold Me Now
TTITLE7=Wonderful Tonight
TTITLE8=She's Waiting
TTITLE9=Lay Down Sally
EXTD=
EXTT0=
EXTT1=
EXTT2=
EXTT3=
EXTT4=
EXTT5=
EXTT6=
EXTT7=
EXTT8=
EXTT9=
PLAYORDER=
